<svg xmlns="http://www.w3.org/2000/svg" xmlns:xlink="http://www.w3.org/1999/xlink" width="500" zoomAndPan="magnify" viewBox="0 0 375 374.999991" height="500" preserveAspectRatio="xMidYMid meet" version="1.0"><defs><g/><clipPath id="32b5dd9ded"><path d="M 50 135.90625 L 147.476562 135.90625 L 147.476562 248.40625 L 50 248.40625 Z M 50 135.90625 " clip-rule="nonzero"/></clipPath><linearGradient x1="-0.00000537218" gradientTransform="matrix(1, 0, 0, 1, 0.00000537218, -0.00000302935)" y1="5.5" x2="84.83485" gradientUnits="userSpaceOnUse" y2="5.5" id="2d53047dfb"><stop stop-opacity="1" stop-color="rgb(0%, 59.199524%, 69.799805%)" offset="0"/><stop stop-opacity="1" stop-color="rgb(0.192261%, 59.300232%, 69.659424%)" offset="0.0078125"/><stop stop-opacity="1" stop-color="rgb(0.576782%, 59.501648%, 69.380188%)" offset="0.015625"/><stop stop-opacity="1" stop-color="rgb(0.96283%, 59.70459%, 69.100952%)" offset="0.0234375"/><stop stop-opacity="1" stop-color="rgb(1.348877%, 59.907532%, 68.821716%)" offset="0.03125"/><stop stop-opacity="1" stop-color="rgb(1.734924%, 60.108948%, 68.544006%)" offset="0.0390625"/><stop stop-opacity="1" stop-color="rgb(2.120972%, 60.31189%, 68.264771%)" offset="0.046875"/><stop stop-opacity="1" stop-color="rgb(2.507019%, 60.513306%, 67.985535%)" offset="0.0546875"/><stop stop-opacity="1" stop-color="rgb(2.893066%, 60.716248%, 67.706299%)" offset="0.0625"/><stop stop-opacity="1" stop-color="rgb(3.279114%, 60.919189%, 67.428589%)" offset="0.0703125"/><stop stop-opacity="1" stop-color="rgb(3.665161%, 61.120605%, 67.149353%)" offset="0.078125"/><stop stop-opacity="1" stop-color="rgb(4.051208%, 61.323547%, 66.870117%)" offset="0.0859375"/><stop stop-opacity="1" stop-color="rgb(4.437256%, 61.524963%, 66.590881%)" offset="0.09375"/><stop stop-opacity="1" stop-color="rgb(4.823303%, 61.727905%, 66.311646%)" offset="0.101562"/><stop stop-opacity="1" stop-color="rgb(5.209351%, 61.930847%, 66.033936%)" offset="0.109375"/><stop stop-opacity="1" stop-color="rgb(5.593872%, 62.132263%, 65.7547%)" offset="0.117188"/><stop stop-opacity="1" stop-color="rgb(5.979919%, 62.335205%, 65.475464%)" offset="0.125"/><stop stop-opacity="1" stop-color="rgb(6.365967%, 62.538147%, 65.196228%)" offset="0.132812"/><stop stop-opacity="1" stop-color="rgb(6.752014%, 62.739563%, 64.918518%)" offset="0.140625"/><stop stop-opacity="1" stop-color="rgb(7.138062%, 62.942505%, 64.639282%)" offset="0.148437"/><stop stop-opacity="1" stop-color="rgb(7.524109%, 63.143921%, 64.360046%)" offset="0.15625"/><stop stop-opacity="1" stop-color="rgb(7.910156%, 63.346863%, 64.080811%)" offset="0.164062"/><stop stop-opacity="1" stop-color="rgb(8.296204%, 63.549805%, 63.801575%)" offset="0.171875"/><stop stop-opacity="1" stop-color="rgb(8.682251%, 63.751221%, 63.523865%)" offset="0.179687"/><stop stop-opacity="1" stop-color="rgb(9.068298%, 63.954163%, 63.244629%)" offset="0.1875"/><stop stop-opacity="1" stop-color="rgb(9.454346%, 64.155579%, 62.965393%)" offset="0.195312"/><stop stop-opacity="1" stop-color="rgb(9.840393%, 64.358521%, 62.686157%)" offset="0.203125"/><stop stop-opacity="1" stop-color="rgb(10.22644%, 64.561462%, 62.406921%)" offset="0.210937"/><stop stop-opacity="1" stop-color="rgb(10.612488%, 64.762878%, 62.129211%)" offset="0.21875"/><stop stop-opacity="1" stop-color="rgb(10.997009%, 64.96582%, 61.849976%)" offset="0.226562"/><stop stop-opacity="1" stop-color="rgb(11.383057%, 65.167236%, 61.57074%)" offset="0.234375"/><stop stop-opacity="1" stop-color="rgb(11.769104%, 65.370178%, 61.291504%)" offset="0.242188"/><stop stop-opacity="1" stop-color="rgb(12.155151%, 65.57312%, 61.013794%)" offset="0.25"/><stop stop-opacity="1" stop-color="rgb(12.541199%, 65.774536%, 60.734558%)" offset="0.257812"/><stop stop-opacity="1" stop-color="rgb(12.927246%, 65.977478%, 60.455322%)" offset="0.265625"/><stop stop-opacity="1" stop-color="rgb(13.313293%, 66.178894%, 60.176086%)" offset="0.273437"/><stop stop-opacity="1" stop-color="rgb(13.699341%, 66.381836%, 59.896851%)" offset="0.28125"/><stop stop-opacity="1" stop-color="rgb(14.085388%, 66.584778%, 59.619141%)" offset="0.289062"/><stop stop-opacity="1" stop-color="rgb(14.471436%, 66.786194%, 59.339905%)" offset="0.296875"/><stop stop-opacity="1" stop-color="rgb(14.857483%, 66.989136%, 59.060669%)" offset="0.304687"/><stop stop-opacity="1" stop-color="rgb(15.24353%, 67.192078%, 58.781433%)" offset="0.3125"/><stop stop-opacity="1" stop-color="rgb(15.629578%, 67.393494%, 58.502197%)" offset="0.320312"/><stop stop-opacity="1" stop-color="rgb(16.015625%, 67.596436%, 58.224487%)" offset="0.328125"/><stop stop-opacity="1" stop-color="rgb(16.400146%, 67.797852%, 57.945251%)" offset="0.335938"/><stop stop-opacity="1" stop-color="rgb(16.786194%, 68.000793%, 57.666016%)" offset="0.34375"/><stop stop-opacity="1" stop-color="rgb(17.172241%, 68.203735%, 57.38678%)" offset="0.351562"/><stop stop-opacity="1" stop-color="rgb(17.558289%, 68.405151%, 57.10907%)" offset="0.359375"/><stop stop-opacity="1" stop-color="rgb(17.944336%, 68.608093%, 56.829834%)" offset="0.367188"/><stop stop-opacity="1" stop-color="rgb(18.330383%, 68.809509%, 56.550598%)" offset="0.375"/><stop stop-opacity="1" stop-color="rgb(18.716431%, 69.012451%, 56.271362%)" offset="0.382812"/><stop stop-opacity="1" stop-color="rgb(19.102478%, 69.215393%, 55.992126%)" offset="0.390625"/><stop stop-opacity="1" stop-color="rgb(19.488525%, 69.416809%, 55.714417%)" offset="0.398437"/><stop stop-opacity="1" stop-color="rgb(19.874573%, 69.619751%, 55.435181%)" offset="0.40625"/><stop stop-opacity="1" stop-color="rgb(20.26062%, 69.821167%, 55.155945%)" offset="0.414062"/><stop stop-opacity="1" stop-color="rgb(20.646667%, 70.024109%, 54.876709%)" offset="0.421875"/><stop stop-opacity="1" stop-color="rgb(21.032715%, 70.227051%, 54.598999%)" offset="0.429687"/><stop stop-opacity="1" stop-color="rgb(21.418762%, 70.428467%, 54.319763%)" offset="0.4375"/><stop stop-opacity="1" stop-color="rgb(21.803284%, 70.631409%, 54.040527%)" offset="0.445312"/><stop stop-opacity="1" stop-color="rgb(22.189331%, 70.832825%, 53.761292%)" offset="0.453125"/><stop stop-opacity="1" stop-color="rgb(22.575378%, 71.035767%, 53.482056%)" offset="0.460937"/><stop stop-opacity="1" stop-color="rgb(22.961426%, 71.238708%, 53.204346%)" offset="0.46875"/><stop stop-opacity="1" stop-color="rgb(23.347473%, 71.440125%, 52.92511%)" offset="0.476562"/><stop stop-opacity="1" stop-color="rgb(23.733521%, 71.643066%, 52.645874%)" offset="0.484375"/><stop stop-opacity="1" stop-color="rgb(24.119568%, 71.844482%, 52.366638%)" offset="0.492187"/><stop stop-opacity="1" stop-color="rgb(24.505615%, 72.047424%, 52.087402%)" offset="0.5"/><stop stop-opacity="1" stop-color="rgb(24.891663%, 72.250366%, 51.809692%)" offset="0.507812"/><stop stop-opacity="1" stop-color="rgb(25.27771%, 72.451782%, 51.530457%)" offset="0.515625"/><stop stop-opacity="1" stop-color="rgb(25.663757%, 72.654724%, 51.251221%)" offset="0.523438"/><stop stop-opacity="1" stop-color="rgb(26.049805%, 72.857666%, 50.971985%)" offset="0.53125"/><stop stop-opacity="1" stop-color="rgb(26.435852%, 73.059082%, 50.694275%)" offset="0.539062"/><stop stop-opacity="1" stop-color="rgb(26.821899%, 73.262024%, 50.415039%)" offset="0.546875"/><stop stop-opacity="1" stop-color="rgb(27.206421%, 73.46344%, 50.135803%)" offset="0.554688"/><stop stop-opacity="1" stop-color="rgb(27.592468%, 73.666382%, 49.856567%)" offset="0.5625"/><stop stop-opacity="1" stop-color="rgb(27.978516%, 73.869324%, 49.577332%)" offset="0.570312"/><stop stop-opacity="1" stop-color="rgb(28.364563%, 74.07074%, 49.299622%)" offset="0.578125"/><stop stop-opacity="1" stop-color="rgb(28.75061%, 74.273682%, 49.020386%)" offset="0.585938"/><stop stop-opacity="1" stop-color="rgb(29.136658%, 74.475098%, 48.74115%)" offset="0.59375"/><stop stop-opacity="1" stop-color="rgb(29.522705%, 74.67804%, 48.461914%)" offset="0.601562"/><stop stop-opacity="1" stop-color="rgb(29.908752%, 74.880981%, 48.184204%)" offset="0.609375"/><stop stop-opacity="1" stop-color="rgb(30.2948%, 75.082397%, 47.904968%)" offset="0.617188"/><stop stop-opacity="1" stop-color="rgb(30.680847%, 75.285339%, 47.625732%)" offset="0.625"/><stop stop-opacity="1" stop-color="rgb(31.066895%, 75.486755%, 47.346497%)" offset="0.632813"/><stop stop-opacity="1" stop-color="rgb(31.452942%, 75.689697%, 47.067261%)" offset="0.640625"/><stop stop-opacity="1" stop-color="rgb(31.838989%, 75.892639%, 46.789551%)" offset="0.648438"/><stop stop-opacity="1" stop-color="rgb(32.223511%, 76.094055%, 46.510315%)" offset="0.65625"/><stop stop-opacity="1" stop-color="rgb(32.609558%, 76.296997%, 46.231079%)" offset="0.664063"/><stop stop-opacity="1" stop-color="rgb(32.995605%, 76.498413%, 45.951843%)" offset="0.671875"/><stop stop-opacity="1" stop-color="rgb(33.381653%, 76.701355%, 45.672607%)" offset="0.679688"/><stop stop-opacity="1" stop-color="rgb(33.7677%, 76.904297%, 45.394897%)" offset="0.6875"/><stop stop-opacity="1" stop-color="rgb(34.153748%, 77.105713%, 45.115662%)" offset="0.695313"/><stop stop-opacity="1" stop-color="rgb(34.539795%, 77.308655%, 44.836426%)" offset="0.703125"/><stop stop-opacity="1" stop-color="rgb(34.925842%, 77.511597%, 44.55719%)" offset="0.710938"/><stop stop-opacity="1" stop-color="rgb(35.31189%, 77.713013%, 44.27948%)" offset="0.71875"/><stop stop-opacity="1" stop-color="rgb(35.697937%, 77.915955%, 44.000244%)" offset="0.726563"/><stop stop-opacity="1" stop-color="rgb(36.083984%, 78.117371%, 43.721008%)" offset="0.734375"/><stop stop-opacity="1" stop-color="rgb(36.470032%, 78.320312%, 43.441772%)" offset="0.742188"/><stop stop-opacity="1" stop-color="rgb(36.856079%, 78.523254%, 43.162537%)" offset="0.75"/><stop stop-opacity="1" stop-color="rgb(37.242126%, 78.72467%, 42.884827%)" offset="0.757812"/><stop stop-opacity="1" stop-color="rgb(37.626648%, 78.927612%, 42.605591%)" offset="0.765625"/><stop stop-opacity="1" stop-color="rgb(38.012695%, 79.129028%, 42.326355%)" offset="0.773437"/><stop stop-opacity="1" stop-color="rgb(38.398743%, 79.33197%, 42.047119%)" offset="0.78125"/><stop stop-opacity="1" stop-color="rgb(38.78479%, 79.534912%, 41.767883%)" offset="0.789062"/><stop stop-opacity="1" stop-color="rgb(39.170837%, 79.736328%, 41.490173%)" offset="0.796875"/><stop stop-opacity="1" stop-color="rgb(39.556885%, 79.93927%, 41.210938%)" offset="0.804687"/><stop stop-opacity="1" stop-color="rgb(39.942932%, 80.140686%, 40.931702%)" offset="0.8125"/><stop stop-opacity="1" stop-color="rgb(40.328979%, 80.343628%, 40.652466%)" offset="0.820312"/><stop stop-opacity="1" stop-color="rgb(40.715027%, 80.54657%, 40.374756%)" offset="0.828125"/><stop stop-opacity="1" stop-color="rgb(41.101074%, 80.747986%, 40.09552%)" offset="0.835937"/><stop stop-opacity="1" stop-color="rgb(41.487122%, 80.950928%, 39.816284%)" offset="0.84375"/><stop stop-opacity="1" stop-color="rgb(41.873169%, 81.152344%, 39.537048%)" offset="0.851562"/><stop stop-opacity="1" stop-color="rgb(42.259216%, 81.355286%, 39.257812%)" offset="0.859375"/><stop stop-opacity="1" stop-color="rgb(42.645264%, 81.558228%, 38.980103%)" offset="0.867187"/><stop stop-opacity="1" stop-color="rgb(43.029785%, 81.759644%, 38.700867%)" offset="0.875"/><stop stop-opacity="1" stop-color="rgb(43.415833%, 81.962585%, 38.421631%)" offset="0.882812"/><stop stop-opacity="1" stop-color="rgb(43.80188%, 82.164001%, 38.142395%)" offset="0.890625"/><stop stop-opacity="1" stop-color="rgb(44.187927%, 82.366943%, 37.864685%)" offset="0.898438"/><stop stop-opacity="1" stop-color="rgb(44.573975%, 82.569885%, 37.585449%)" offset="0.90625"/><stop stop-opacity="1" stop-color="rgb(44.960022%, 82.771301%, 37.306213%)" offset="0.914062"/><stop stop-opacity="1" stop-color="rgb(45.346069%, 82.974243%, 37.026978%)" offset="0.921875"/><stop stop-opacity="1" stop-color="rgb(45.732117%, 83.177185%, 36.747742%)" offset="0.929688"/><stop stop-opacity="1" stop-color="rgb(46.118164%, 83.378601%, 36.470032%)" offset="0.9375"/><stop stop-opacity="1" stop-color="rgb(46.504211%, 83.581543%, 36.190796%)" offset="0.945312"/><stop stop-opacity="1" stop-color="rgb(46.890259%, 83.782959%, 35.91156%)" offset="0.953125"/><stop stop-opacity="1" stop-color="rgb(47.276306%, 83.985901%, 35.632324%)" offset="0.960938"/><stop stop-opacity="1" stop-color="rgb(47.662354%, 84.188843%, 35.353088%)" offset="0.96875"/><stop stop-opacity="1" stop-color="rgb(48.048401%, 84.390259%, 35.075378%)" offset="0.976562"/><stop stop-opacity="1" stop-color="rgb(48.432922%, 84.593201%, 34.796143%)" offset="0.984375"/><stop stop-opacity="1" stop-color="rgb(48.81897%, 84.794617%, 34.516907%)" offset="0.992188"/><stop stop-opacity="1" stop-color="rgb(49.205017%, 84.997559%, 34.237671%)" offset="1"/></linearGradient></defs><g clip-path="url(#32b5dd9ded)"><path fill="#7ad65c" d="M 130.738281 248.5 L 66.757812 248.5 C 66.210938 248.5 65.664062 248.472656 65.121094 248.417969 C 64.574219 248.363281 64.035156 248.28125 63.5 248.175781 C 62.960938 248.070312 62.429688 247.933594 61.90625 247.777344 C 61.382812 247.617188 60.867188 247.433594 60.363281 247.222656 C 59.855469 247.011719 59.363281 246.777344 58.878906 246.519531 C 58.398438 246.261719 57.929688 245.980469 57.472656 245.675781 C 57.019531 245.371094 56.578125 245.046875 56.15625 244.699219 C 55.734375 244.351562 55.328125 243.984375 54.941406 243.597656 C 54.554688 243.210938 54.1875 242.804688 53.839844 242.382812 C 53.492188 241.957031 53.164062 241.519531 52.863281 241.0625 C 52.558594 240.609375 52.277344 240.140625 52.015625 239.65625 C 51.757812 239.175781 51.523438 238.679688 51.316406 238.175781 C 51.105469 237.667969 50.921875 237.152344 50.761719 236.628906 C 50.601562 236.105469 50.46875 235.574219 50.363281 235.039062 C 50.253906 234.503906 50.171875 233.960938 50.121094 233.417969 C 50.066406 232.871094 50.039062 232.324219 50.035156 231.777344 L 50.035156 186.929688 C 50.03125 184.796875 50.429688 182.738281 51.230469 180.761719 C 52.03125 178.785156 53.171875 177.03125 54.65625 175.5 L 88.886719 140.105469 C 89.523438 139.441406 90.222656 138.847656 90.980469 138.324219 C 91.738281 137.804688 92.542969 137.359375 93.390625 137 C 94.234375 136.640625 95.109375 136.367188 96.015625 136.183594 C 96.917969 136 97.828125 135.90625 98.75 135.90625 C 99.671875 135.90625 100.582031 136 101.484375 136.183594 C 102.386719 136.367188 103.261719 136.640625 104.109375 137 C 104.957031 137.359375 105.761719 137.804688 106.519531 138.324219 C 107.277344 138.847656 107.976562 139.441406 108.613281 140.105469 L 146.03125 178.800781 C 146.265625 179.039062 146.472656 179.300781 146.65625 179.582031 C 146.839844 179.863281 146.992188 180.15625 147.117188 180.46875 C 147.242188 180.78125 147.332031 181.101562 147.394531 181.429688 C 147.453125 181.761719 147.480469 182.09375 147.476562 182.429688 C 147.472656 182.761719 147.433594 183.09375 147.363281 183.421875 C 147.292969 183.75 147.191406 184.066406 147.058594 184.375 C 146.925781 184.683594 146.765625 184.972656 146.574219 185.25 C 146.382812 185.527344 146.167969 185.78125 145.925781 186.011719 C 145.6875 186.246094 145.425781 186.453125 145.140625 186.632812 C 144.859375 186.816406 144.5625 186.96875 144.25 187.089844 C 143.941406 187.214844 143.617188 187.304688 143.289062 187.363281 C 142.960938 187.421875 142.625 187.449219 142.292969 187.441406 C 141.957031 187.4375 141.625 187.398438 141.296875 187.324219 C 140.96875 187.253906 140.652344 187.152344 140.347656 187.015625 C 140.039062 186.882812 139.75 186.71875 139.472656 186.527344 C 139.199219 186.335938 138.945312 186.117188 138.714844 185.875 L 101.292969 147.195312 C 101.128906 147.023438 100.953125 146.867188 100.757812 146.730469 C 100.5625 146.59375 100.355469 146.476562 100.136719 146.382812 C 99.917969 146.285156 99.691406 146.214844 99.457031 146.167969 C 99.222656 146.117188 98.988281 146.09375 98.75 146.09375 C 98.511719 146.09375 98.273438 146.117188 98.042969 146.167969 C 97.808594 146.214844 97.582031 146.285156 97.363281 146.382812 C 97.144531 146.476562 96.9375 146.59375 96.742188 146.730469 C 96.546875 146.867188 96.367188 147.023438 96.203125 147.195312 L 61.976562 182.578125 C 61.410156 183.164062 60.976562 183.832031 60.675781 184.585938 C 60.375 185.34375 60.226562 186.125 60.230469 186.941406 L 60.230469 231.777344 C 60.230469 232.207031 60.273438 232.632812 60.359375 233.054688 C 60.441406 233.476562 60.566406 233.882812 60.730469 234.28125 C 60.894531 234.675781 61.097656 235.054688 61.335938 235.410156 C 61.574219 235.769531 61.84375 236.097656 62.148438 236.402344 C 62.453125 236.707031 62.785156 236.976562 63.140625 237.214844 C 63.496094 237.453125 63.875 237.65625 64.269531 237.820312 C 64.667969 237.984375 65.078125 238.109375 65.496094 238.195312 C 65.917969 238.277344 66.34375 238.320312 66.773438 238.320312 L 130.753906 238.320312 C 131.089844 238.320312 131.417969 238.355469 131.746094 238.417969 C 132.074219 238.484375 132.394531 238.582031 132.703125 238.710938 C 133.011719 238.835938 133.304688 238.992188 133.582031 239.179688 C 133.859375 239.363281 134.117188 239.574219 134.351562 239.8125 C 134.589844 240.046875 134.800781 240.304688 134.984375 240.582031 C 135.171875 240.863281 135.328125 241.15625 135.457031 241.464844 C 135.582031 241.773438 135.679688 242.089844 135.746094 242.417969 C 135.8125 242.746094 135.84375 243.078125 135.84375 243.410156 C 135.84375 243.746094 135.8125 244.074219 135.746094 244.402344 C 135.679688 244.730469 135.582031 245.050781 135.457031 245.359375 C 135.328125 245.667969 135.171875 245.960938 134.984375 246.238281 C 134.800781 246.515625 134.589844 246.773438 134.351562 247.007812 C 134.117188 247.246094 133.859375 247.457031 133.582031 247.644531 C 133.304688 247.828125 133.011719 247.984375 132.703125 248.113281 C 132.394531 248.242188 132.074219 248.335938 131.746094 248.402344 C 131.417969 248.46875 131.089844 248.5 130.753906 248.5 Z M 130.738281 248.5 " fill-opacity="1" fill-rule="nonzero"/></g><path stroke-linecap="round" transform="matrix(0.53033, -0.53033, 0.53033, 0.53033, 37.499262, 171.46597)" fill="none" stroke-linejoin="miter" d="M 5.50025 5.498125 L 79.333987 5.498125 " stroke="url(#2d53047dfb)" stroke-width="11" stroke-miterlimit="4"/><path stroke-linecap="butt" transform="matrix(0.75, 0, 0, 0.75, 165.623972, 169.87843)" fill="none" stroke-linejoin="miter" d="M 3.959704 7.938135 L 29.011789 7.938135 C 29.975331 7.938135 30.678456 8.052718 31.126373 8.281885 C 31.579498 8.500635 31.881581 8.849593 32.027414 9.333968 C 32.183664 9.813135 32.256581 10.443343 32.256581 11.224593 C 32.256581 12.005844 32.183664 12.625635 32.027414 13.094385 C 31.881581 13.557927 31.626373 13.880844 31.266998 14.063135 C 30.725331 14.32876 29.959706 14.458969 28.970123 14.458969 L 20.360747 14.458969 L 20.360747 37.130845 C 20.360747 37.818345 20.334705 38.328762 20.293039 38.656887 C 20.246164 38.985012 20.110747 39.370429 19.886789 39.813137 C 19.66283 40.245429 19.266997 40.55272 18.699289 40.735012 C 18.126372 40.912095 17.376372 41.000637 16.44408 41.000637 C 15.511788 41.000637 14.766997 40.912095 14.209705 40.735012 C 13.657622 40.55272 13.272205 40.245429 13.043038 39.813137 C 12.81908 39.370429 12.683663 38.979804 12.636788 38.636054 C 12.595121 38.292304 12.56908 37.77147 12.56908 37.08397 L 12.56908 14.458969 L 3.918038 14.458969 C 2.954496 14.458969 2.246162 14.349594 1.793037 14.130844 C 1.345121 13.901677 1.043037 13.552719 0.891996 13.073552 C 0.746162 12.589177 0.673246 11.958969 0.673246 11.182927 C 0.673246 10.396468 0.746162 9.776677 0.891996 9.313135 C 1.043037 8.844385 1.303454 8.51626 1.673246 8.333968 C 2.204496 8.068343 2.970121 7.938135 3.959704 7.938135 Z M 43.115957 11.943344 C 43.115957 11.250635 43.13679 10.73501 43.178457 10.39126 C 43.225332 10.04751 43.365957 9.646468 43.610748 9.193343 C 44.027415 8.386052 45.194082 7.979802 47.115957 7.979802 C 49.220124 7.979802 50.470124 8.537093 50.855541 9.64126 C 51.011791 10.156885 51.089916 10.938135 51.089916 11.98501 L 51.089916 37.042304 C 51.089916 37.761054 51.063874 38.281887 51.022207 38.61522 C 50.975332 38.943345 50.834707 39.33397 50.595124 39.776679 C 50.168041 40.594387 48.996166 41.000637 47.07429 41.000637 C 44.975332 41.000637 43.746165 40.42772 43.376373 39.281887 C 43.19929 38.807929 43.115957 38.042304 43.115957 36.985012 Z M 82.121168 10.323552 L 94.287835 35.45897 C 94.798252 36.474595 95.05346 37.24022 95.05346 37.755845 C 95.05346 38.839179 94.183668 39.818345 92.438877 40.682929 C 91.418043 41.193345 90.61596 41.448554 90.027418 41.448554 C 89.444085 41.448554 88.95971 41.313137 88.589918 41.042304 C 88.214918 40.77147 87.944085 40.485012 87.77221 40.188137 C 87.610751 39.886054 87.381585 39.432929 87.079501 38.83397 L 84.74096 33.969387 L 72.256584 33.969387 L 69.912834 38.83397 C 69.61075 39.432929 69.376375 39.870429 69.209709 40.141262 C 69.04825 40.412095 68.777417 40.693345 68.407625 40.979804 C 68.032625 41.266262 67.553458 41.406887 66.964917 41.406887 C 66.376375 41.406887 65.574292 41.151679 64.558667 40.636054 C 62.808666 39.80272 61.938875 38.839179 61.938875 37.755845 C 61.938875 37.24022 62.194083 36.474595 62.709708 35.45897 L 74.871167 10.281885 C 75.204501 9.583968 75.704501 9.026677 76.381584 8.61001 C 77.053459 8.193343 77.767001 7.979802 78.522209 7.979802 C 80.147209 7.979802 81.345126 8.761052 82.121168 10.323552 Z M 78.480542 21.136052 L 75.501376 27.307928 L 81.496168 27.307928 Z M 113.886795 34.33397 L 126.136796 34.33397 C 127.131587 34.33397 127.845129 34.448553 128.293046 34.67772 C 128.751379 34.89647 129.048254 35.245428 129.199296 35.729803 C 129.350337 36.20897 129.428462 36.844387 129.428462 37.64647 C 129.428462 38.438137 129.350337 39.073554 129.199296 39.557929 C 129.048254 40.037095 128.798254 40.36522 128.438879 40.547512 C 127.865962 40.849595 127.084712 41.000637 126.095129 41.000637 L 109.87117 41.000637 C 107.777419 41.000637 106.543044 40.42772 106.178461 39.281887 C 106.001378 38.807929 105.912836 38.042304 105.912836 36.985012 L 105.912836 11.943344 C 105.912836 11.250635 105.933669 10.73501 105.980544 10.39126 C 106.022211 10.04751 106.168044 9.646468 106.407628 9.193343 C 106.824294 8.386052 107.996169 7.979802 109.918045 7.979802 C 112.022211 7.979802 113.267003 8.537093 113.657628 9.64126 C 113.80867 10.156885 113.886795 10.938135 113.886795 11.98501 Z M 161.371173 32.354803 L 162.183673 31.761053 C 163.204506 31.162095 163.923256 30.860011 164.339923 30.860011 C 165.272215 30.860011 166.277423 31.703761 167.365965 33.391262 C 168.022215 34.438137 168.355548 35.276678 168.355548 35.906887 C 168.355548 36.537095 168.147215 37.068345 167.735757 37.49022 C 167.334715 37.906887 166.860757 38.281887 166.31909 38.61522 C 165.782632 38.943345 165.267006 39.261054 164.767006 39.557929 C 164.267006 39.860012 163.251381 40.250637 161.720131 40.735012 C 160.194089 41.214179 158.720131 41.448554 157.287839 41.448554 C 155.865964 41.448554 154.423256 41.266262 152.964922 40.891262 C 151.506589 40.516262 150.006589 39.886054 148.454505 39.000637 C 146.90763 38.110012 145.522214 37.031887 144.287838 35.755845 C 143.058672 34.479803 142.043047 32.844387 141.240963 30.849595 C 140.449297 28.844386 140.053463 26.677719 140.053463 24.339178 C 140.053463 21.990219 140.444088 19.865219 141.22013 17.958969 C 142.006588 16.052719 143.006588 14.474594 144.22013 13.229802 C 145.43888 11.979802 146.829505 10.938135 148.392005 10.094385 C 151.339922 8.474593 154.298256 7.662093 157.267006 7.662093 C 158.683673 7.662093 160.115964 7.880843 161.56909 8.323552 C 163.027423 8.755843 164.13159 9.193343 164.876381 9.64126 L 165.964923 10.281885 C 166.501382 10.61001 166.918048 10.880843 167.220132 11.083968 C 168.00659 11.714177 168.397215 12.427719 168.397215 13.229802 C 168.397215 14.021469 168.079507 14.854802 167.449298 15.724594 C 166.277423 17.344386 165.22534 18.156886 164.293048 18.156886 C 163.751381 18.156886 162.985756 17.823552 161.996173 17.167302 C 160.735756 16.146469 159.053464 15.636052 156.949298 15.636052 C 154.996172 15.636052 153.074297 16.313135 151.183672 17.662094 C 150.282631 18.323552 149.53263 19.250636 148.928464 20.453761 C 148.329505 21.656886 148.027422 23.016261 148.027422 24.537094 C 148.027422 26.052719 148.329505 27.412095 148.928464 28.61522 C 149.53263 29.813136 150.298256 30.755845 151.230547 31.453761 C 153.063881 32.77147 154.970131 33.432928 156.949298 33.432928 C 157.881589 33.432928 158.756589 33.313137 159.589923 33.068345 C 160.418048 32.828762 161.011798 32.589178 161.371173 32.354803 Z M 179.704507 11.943344 C 179.704507 11.250635 179.725341 10.73501 179.767007 10.39126 C 179.813882 10.04751 179.954507 9.646468 180.199299 9.193343 C 180.615966 8.386052 181.787841 7.979802 183.704508 7.979802 C 185.813883 7.979802 187.058675 8.537093 187.444091 9.64126 C 187.600341 10.156885 187.678466 10.938135 187.678466 11.98501 L 187.678466 37.042304 C 187.678466 37.761054 187.657633 38.281887 187.610758 38.61522 C 187.569091 38.943345 187.423258 39.33397 187.183675 39.776679 C 186.756591 40.594387 185.584716 41.000637 183.662841 41.000637 C 181.563883 41.000637 180.334716 40.42772 179.964924 39.281887 C 179.793049 38.807929 179.704507 38.042304 179.704507 36.985012 Z M 179.704507 11.943344 " stroke="#7ad65c" stroke-width="0.619541" stroke-opacity="1" stroke-miterlimit="4"/><g fill="#7ad65c" fill-opacity="1"><g transform="translate(165.623972, 200.628428)"><g><path d="M 2.96875 -24.796875 L 21.75 -24.796875 C 22.476562 -24.796875 23.007812 -24.707031 23.34375 -24.53125 C 23.675781 -24.363281 23.898438 -24.097656 24.015625 -23.734375 C 24.128906 -23.378906 24.1875 -22.910156 24.1875 -22.328125 C 24.1875 -21.742188 24.128906 -21.273438 24.015625 -20.921875 C 23.898438 -20.578125 23.707031 -20.335938 23.4375 -20.203125 C 23.039062 -19.992188 22.46875 -19.890625 21.71875 -19.890625 L 15.265625 -19.890625 L 15.265625 -2.90625 C 15.265625 -2.382812 15.25 -2 15.21875 -1.75 C 15.1875 -1.507812 15.082031 -1.222656 14.90625 -0.890625 C 14.738281 -0.566406 14.441406 -0.335938 14.015625 -0.203125 C 13.585938 -0.0664062 13.023438 0 12.328125 0 C 11.628906 0 11.070312 -0.0664062 10.65625 -0.203125 C 10.238281 -0.335938 9.945312 -0.566406 9.78125 -0.890625 C 9.613281 -1.222656 9.507812 -1.515625 9.46875 -1.765625 C 9.4375 -2.023438 9.421875 -2.414062 9.421875 -2.9375 L 9.421875 -19.890625 L 2.9375 -19.890625 C 2.21875 -19.890625 1.6875 -19.972656 1.34375 -20.140625 C 1.007812 -20.316406 0.785156 -20.582031 0.671875 -20.9375 C 0.554688 -21.300781 0.5 -21.773438 0.5 -22.359375 C 0.5 -22.941406 0.554688 -23.40625 0.671875 -23.75 C 0.785156 -24.101562 0.976562 -24.347656 1.25 -24.484375 C 1.65625 -24.691406 2.226562 -24.796875 2.96875 -24.796875 Z M 2.96875 -24.796875 "/></g></g></g><g fill="#7ad65c" fill-opacity="1"><g transform="translate(196.606402, 200.628428)"><g><path d="M 1.34375 -21.78125 C 1.34375 -22.300781 1.359375 -22.691406 1.390625 -22.953125 C 1.429688 -23.210938 1.539062 -23.507812 1.71875 -23.84375 C 2.039062 -24.457031 2.921875 -24.765625 4.359375 -24.765625 C 5.929688 -24.765625 6.863281 -24.347656 7.15625 -23.515625 C 7.269531 -23.128906 7.328125 -22.539062 7.328125 -21.75 L 7.328125 -2.96875 C 7.328125 -2.425781 7.3125 -2.03125 7.28125 -1.78125 C 7.25 -1.539062 7.140625 -1.25 6.953125 -0.90625 C 6.640625 -0.300781 5.765625 0 4.328125 0 C 2.742188 0 1.816406 -0.425781 1.546875 -1.28125 C 1.410156 -1.644531 1.34375 -2.21875 1.34375 -3 Z M 1.34375 -21.78125 "/></g></g></g><g fill="#7ad65c" fill-opacity="1"><g transform="translate(211.574693, 200.628428)"><g><path d="M 15.640625 -23 L 24.765625 -4.15625 C 25.148438 -3.382812 25.34375 -2.8125 25.34375 -2.4375 C 25.34375 -1.625 24.6875 -0.890625 23.375 -0.234375 C 22.613281 0.148438 22.007812 0.34375 21.5625 0.34375 C 21.125 0.34375 20.765625 0.238281 20.484375 0.03125 C 20.203125 -0.164062 20 -0.378906 19.875 -0.609375 C 19.75 -0.835938 19.578125 -1.175781 19.359375 -1.625 L 17.59375 -5.265625 L 8.25 -5.265625 L 6.484375 -1.625 C 6.253906 -1.175781 6.078125 -0.847656 5.953125 -0.640625 C 5.835938 -0.441406 5.640625 -0.234375 5.359375 -0.015625 C 5.078125 0.191406 4.710938 0.296875 4.265625 0.296875 C 3.828125 0.296875 3.226562 0.109375 2.46875 -0.265625 C 1.15625 -0.898438 0.5 -1.625 0.5 -2.4375 C 0.5 -2.8125 0.691406 -3.382812 1.078125 -4.15625 L 10.203125 -23.03125 C 10.453125 -23.550781 10.828125 -23.96875 11.328125 -24.28125 C 11.835938 -24.601562 12.375 -24.765625 12.9375 -24.765625 C 14.15625 -24.765625 15.054688 -24.175781 15.640625 -23 Z M 12.90625 -14.890625 L 10.671875 -10.265625 L 15.171875 -10.265625 Z M 12.90625 -14.890625 "/></g></g></g><g fill="#7ad65c" fill-opacity="1"><g transform="translate(243.705815, 200.628428)"><g><path d="M 7.328125 -5 L 16.515625 -5 C 17.265625 -5 17.804688 -4.914062 18.140625 -4.75 C 18.472656 -4.582031 18.695312 -4.316406 18.8125 -3.953125 C 18.925781 -3.585938 18.984375 -3.109375 18.984375 -2.515625 C 18.984375 -1.921875 18.925781 -1.441406 18.8125 -1.078125 C 18.695312 -0.722656 18.503906 -0.476562 18.234375 -0.34375 C 17.804688 -0.113281 17.222656 0 16.484375 0 L 4.328125 0 C 2.742188 0 1.816406 -0.425781 1.546875 -1.28125 C 1.410156 -1.644531 1.34375 -2.21875 1.34375 -3 L 1.34375 -21.78125 C 1.34375 -22.300781 1.359375 -22.691406 1.390625 -22.953125 C 1.429688 -23.210938 1.539062 -23.507812 1.71875 -23.84375 C 2.039062 -24.457031 2.921875 -24.765625 4.359375 -24.765625 C 5.929688 -24.765625 6.863281 -24.347656 7.15625 -23.515625 C 7.269531 -23.128906 7.328125 -22.539062 7.328125 -21.75 Z M 7.328125 -5 "/></g></g></g><g fill="#7ad65c" fill-opacity="1"><g transform="translate(269.823188, 200.628428)"><g><path d="M 16.828125 -6.484375 L 17.4375 -6.921875 C 18.195312 -7.367188 18.734375 -7.59375 19.046875 -7.59375 C 19.742188 -7.59375 20.5 -6.960938 21.3125 -5.703125 C 21.8125 -4.921875 22.0625 -4.289062 22.0625 -3.8125 C 22.0625 -3.34375 21.90625 -2.945312 21.59375 -2.625 C 21.289062 -2.3125 20.9375 -2.03125 20.53125 -1.78125 C 20.132812 -1.539062 19.75 -1.304688 19.375 -1.078125 C 19 -0.859375 18.238281 -0.566406 17.09375 -0.203125 C 15.945312 0.160156 14.835938 0.34375 13.765625 0.34375 C 12.691406 0.34375 11.609375 0.203125 10.515625 -0.078125 C 9.429688 -0.359375 8.304688 -0.832031 7.140625 -1.5 C 5.984375 -2.164062 4.941406 -2.976562 4.015625 -3.9375 C 3.097656 -4.894531 2.335938 -6.117188 1.734375 -7.609375 C 1.140625 -9.109375 0.84375 -10.738281 0.84375 -12.5 C 0.84375 -14.257812 1.132812 -15.851562 1.71875 -17.28125 C 2.300781 -18.707031 3.050781 -19.890625 3.96875 -20.828125 C 4.882812 -21.765625 5.925781 -22.546875 7.09375 -23.171875 C 9.300781 -24.390625 11.519531 -25 13.75 -25 C 14.8125 -25 15.882812 -24.832031 16.96875 -24.5 C 18.0625 -24.175781 18.890625 -23.847656 19.453125 -23.515625 L 20.265625 -23.03125 C 20.671875 -22.789062 20.988281 -22.59375 21.21875 -22.4375 C 21.800781 -21.957031 22.09375 -21.421875 22.09375 -20.828125 C 22.09375 -20.234375 21.859375 -19.609375 21.390625 -18.953125 C 20.503906 -17.734375 19.710938 -17.125 19.015625 -17.125 C 18.609375 -17.125 18.035156 -17.375 17.296875 -17.875 C 16.347656 -18.632812 15.085938 -19.015625 13.515625 -19.015625 C 12.046875 -19.015625 10.601562 -18.507812 9.1875 -17.5 C 8.507812 -17 7.945312 -16.296875 7.5 -15.390625 C 7.050781 -14.492188 6.828125 -13.476562 6.828125 -12.34375 C 6.828125 -11.207031 7.050781 -10.1875 7.5 -9.28125 C 7.945312 -8.382812 8.519531 -7.675781 9.21875 -7.15625 C 10.59375 -6.164062 12.023438 -5.671875 13.515625 -5.671875 C 14.210938 -5.671875 14.867188 -5.757812 15.484375 -5.9375 C 16.109375 -6.125 16.554688 -6.304688 16.828125 -6.484375 Z M 16.828125 -6.484375 "/></g></g></g><g fill="#7ad65c" fill-opacity="1"><g transform="translate(299.048787, 200.628428)"><g><path d="M 1.34375 -21.78125 C 1.34375 -22.300781 1.359375 -22.691406 1.390625 -22.953125 C 1.429688 -23.210938 1.539062 -23.507812 1.71875 -23.84375 C 2.039062 -24.457031 2.921875 -24.765625 4.359375 -24.765625 C 5.929688 -24.765625 6.863281 -24.347656 7.15625 -23.515625 C 7.269531 -23.128906 7.328125 -22.539062 7.328125 -21.75 L 7.328125 -2.96875 C 7.328125 -2.425781 7.3125 -2.03125 7.28125 -1.78125 C 7.25 -1.539062 7.140625 -1.25 6.953125 -0.90625 C 6.640625 -0.300781 5.765625 0 4.328125 0 C 2.742188 0 1.816406 -0.425781 1.546875 -1.28125 C 1.410156 -1.644531 1.34375 -2.21875 1.34375 -3 Z M 1.34375 -21.78125 "/></g></g></g><g fill="#7ad65c" fill-opacity="1"><g transform="translate(314.018497, 200.628428)"><g/></g></g><path stroke-linecap="butt" transform="matrix(0.75, 0, 0, 0.75, 165.623972, 204.124981)" fill="none" stroke-linejoin="miter" d="M 1.376371 7.817734 C 1.376371 7.291692 1.391996 6.895859 1.428454 6.635442 C 1.459704 6.369817 1.569079 6.067734 1.756579 5.718776 C 2.074287 5.104192 2.964912 4.796901 4.433663 4.796901 C 6.037829 4.796901 6.990954 5.218776 7.287829 6.062526 C 7.407621 6.453151 7.464913 7.052109 7.464913 7.848984 L 7.464913 26.979194 C 7.464913 27.526069 7.449288 27.927111 7.412829 28.177111 C 7.381579 28.432319 7.272204 28.729194 7.084704 29.067736 C 6.761788 29.687527 5.865954 30.000027 4.397204 30.000027 C 2.798246 30.000027 1.860746 29.562527 1.579496 28.692736 C 1.444079 28.328152 1.376371 27.73961 1.376371 26.937527 Z M 43.397207 5.750026 C 43.579498 6.098984 43.683665 6.411484 43.720124 6.682317 C 43.756582 6.958359 43.777415 7.359401 43.777415 7.885443 L 43.777415 26.979194 C 43.777415 28.557319 43.339915 29.484402 42.470123 29.755236 C 42.032623 29.895861 41.48054 29.968777 40.813873 29.968777 C 40.152415 29.968777 39.626373 29.911486 39.235748 29.796902 C 38.845123 29.682319 38.54304 29.541694 38.334706 29.385444 C 38.13679 29.223986 37.975331 28.994819 37.860748 28.692736 C 37.746165 28.302111 37.688873 27.70836 37.688873 26.901069 L 37.688873 15.380235 C 37.115956 16.093776 36.272206 17.223985 35.173248 18.776068 C 34.07429 20.317735 33.376373 21.286485 33.079498 21.67711 C 32.782623 22.067735 32.579498 22.33336 32.459706 22.484402 C 32.350331 22.635443 32.069081 22.843777 31.621164 23.109402 C 31.173248 23.369819 30.688873 23.500027 30.178456 23.500027 C 29.662831 23.500027 29.188873 23.380235 28.766998 23.140652 C 28.339914 22.901069 28.032622 22.666693 27.850331 22.437527 L 27.574289 22.057318 C 27.121164 21.479193 26.214914 20.260443 24.860747 18.39586 C 23.506581 16.526068 22.772205 15.52086 22.66283 15.380235 L 22.66283 26.979194 C 22.66283 27.505235 22.641997 27.895861 22.60033 28.161486 C 22.56908 28.421902 22.464914 28.713569 22.282622 29.036486 C 21.938872 29.656277 21.043039 29.968777 19.595122 29.968777 C 18.199288 29.968777 17.329497 29.656277 16.985747 29.036486 C 16.803455 28.713569 16.69408 28.416694 16.657622 28.145861 C 16.626372 27.869819 16.605538 27.45836 16.605538 26.901069 L 16.605538 7.817734 C 16.605538 7.291692 16.626372 6.895859 16.657622 6.635442 C 16.69408 6.369817 16.803455 6.067734 16.985747 5.718776 C 17.329497 5.125026 18.220122 4.828151 19.66283 4.828151 C 20.28783 4.828151 20.81908 4.906276 21.266997 5.057317 C 21.714914 5.203151 22.00658 5.354192 22.141997 5.515651 L 22.35033 5.718776 L 30.157623 15.968776 C 34.053456 10.807318 36.652415 7.401067 37.959706 5.750026 C 38.350331 5.135442 39.272207 4.828151 40.73054 4.828151 C 42.183665 4.828151 43.07429 5.135442 43.397207 5.750026 Z M 71.506584 9.885443 C 72.105542 11.098984 72.407625 12.447943 72.407625 13.937526 C 72.407625 15.42711 72.105542 16.776068 71.506584 17.979193 C 70.912834 19.182318 70.147209 20.135443 69.209709 20.848985 C 67.303458 22.322943 65.334708 23.057319 63.29825 23.057319 L 58.996166 23.057319 L 58.996166 26.937527 C 58.996166 27.468777 58.980541 27.864611 58.949291 28.130236 C 58.912833 28.390652 58.803458 28.692736 58.621166 29.036486 C 58.293041 29.656277 57.402416 29.968777 55.933666 29.968777 C 54.334708 29.968777 53.391999 29.541694 53.110749 28.692736 C 52.980541 28.302111 52.912832 27.70836 52.912832 26.901069 L 52.912832 7.817734 C 52.912832 7.291692 52.928457 6.895859 52.959707 6.635442 C 52.996166 6.369817 53.105541 6.067734 53.287832 5.718776 C 53.605541 5.104192 54.501374 4.796901 55.964916 4.796901 L 63.3295 4.796901 C 65.345125 4.796901 67.303458 5.526067 69.209709 6.994817 C 70.147209 7.708359 70.912834 8.666693 71.506584 9.885443 Z M 63.3295 16.968776 C 64.017 16.968776 64.694083 16.718776 65.355542 16.213568 C 66.022208 15.703151 66.355542 14.947943 66.355542 13.937526 C 66.355542 12.932318 66.022208 12.171901 65.355542 11.656276 C 64.694083 11.140651 64.006583 10.880234 63.29825 10.880234 L 58.996166 10.880234 L 58.996166 16.968776 Z M 81.032626 7.817734 C 81.032626 7.291692 81.048251 6.895859 81.084709 6.635442 C 81.115959 6.369817 81.225334 6.067734 81.412834 5.718776 C 81.730543 5.104192 82.621168 4.796901 84.089918 4.796901 C 85.694085 4.796901 86.64721 5.218776 86.944085 6.062526 C 87.058668 6.453151 87.121168 7.052109 87.121168 7.848984 L 87.121168 26.979194 C 87.121168 27.526069 87.105543 27.927111 87.069085 28.177111 C 87.037835 28.432319 86.92846 28.729194 86.74096 29.067736 C 86.418043 29.687527 85.52221 30.000027 84.053459 30.000027 C 82.454501 30.000027 81.511793 29.562527 81.235751 28.692736 C 81.100334 28.328152 81.032626 27.73961 81.032626 26.937527 Z M 110.803461 6.583359 L 120.08992 25.77086 C 120.485754 26.546902 120.678462 27.130235 120.678462 27.52086 C 120.678462 28.348986 120.011795 29.093777 118.68367 29.755236 C 117.90242 30.145861 117.287837 30.343777 116.83992 30.343777 C 116.397212 30.343777 116.02742 30.239611 115.740962 30.031277 C 115.454503 29.828152 115.251378 29.609402 115.12117 29.380236 C 114.99617 29.151069 114.824295 28.807319 114.58992 28.343777 L 112.803461 24.635444 L 103.272211 24.635444 L 101.485752 28.343777 C 101.256586 28.807319 101.079502 29.135444 100.949294 29.343777 C 100.824294 29.552111 100.621169 29.765652 100.334711 29.984402 C 100.048252 30.203152 99.683669 30.312527 99.235752 30.312527 C 98.787835 30.312527 98.173252 30.114611 97.39721 29.723986 C 96.063877 29.083361 95.39721 28.348986 95.39721 27.52086 C 95.39721 27.130235 95.595127 26.546902 95.985752 25.77086 L 105.272211 6.552109 C 105.522211 6.015651 105.907628 5.593776 106.423253 5.276067 C 106.938878 4.953151 107.485753 4.796901 108.058669 4.796901 C 109.298253 4.796901 110.21492 5.390651 110.803461 6.583359 Z M 108.027419 14.838568 L 105.751378 19.546902 L 110.329503 19.546902 Z M 145.235755 5.843776 C 145.454505 5.442734 145.78263 5.171901 146.22013 5.036484 C 146.65763 4.901067 147.199297 4.828151 147.850339 4.828151 C 148.50138 4.828151 149.03263 4.885442 149.433672 5.005234 C 149.839922 5.114609 150.136797 5.255234 150.324297 5.416692 C 150.522214 5.572942 150.668047 5.812526 150.761797 6.130234 C 150.897214 6.500026 150.964922 7.083359 150.964922 7.885443 L 150.964922 26.979194 C 150.964922 27.526069 150.944089 27.927111 150.912839 28.177111 C 150.881589 28.432319 150.772214 28.729194 150.584714 29.067736 C 150.267006 29.687527 149.371172 30.000027 147.90763 30.000027 C 147.011797 30.000027 146.392005 29.932319 146.043047 29.796902 C 145.699297 29.656277 145.418047 29.442736 145.18888 29.145861 C 140.03263 22.265652 136.642005 17.77086 135.011796 15.661485 L 135.011796 26.979194 C 135.011796 27.526069 134.990963 27.927111 134.954504 28.177111 C 134.918046 28.432319 134.813879 28.729194 134.631588 29.067736 C 134.308671 29.687527 133.412838 30.000027 131.944088 30.000027 C 130.522213 30.000027 129.652421 29.687527 129.334712 29.067736 C 129.152421 28.729194 129.043046 28.416694 129.006587 28.145861 C 128.975337 27.869819 128.959712 27.468777 128.959712 26.937527 L 128.959712 7.750026 C 128.959712 6.875026 129.069087 6.239609 129.282629 5.843776 C 129.501379 5.442734 129.829504 5.171901 130.256588 5.036484 C 130.694088 4.901067 131.256588 4.828151 131.944088 4.828151 C 132.636796 4.828151 133.178463 4.890651 133.574296 5.020859 C 133.980546 5.145859 134.261796 5.286484 134.423254 5.442734 C 134.511796 5.515651 134.777421 5.812526 135.214921 6.338567 C 140.053463 12.921901 143.287838 17.265651 144.90763 19.369818 L 144.90763 7.750026 C 144.90763 6.875026 145.017005 6.239609 145.235755 5.843776 Z M 161.751381 4.760442 L 180.876383 4.760442 C 181.610758 4.760442 182.147216 4.848984 182.485758 5.020859 C 182.834716 5.187526 183.063883 5.458359 183.178466 5.828151 C 183.293049 6.192734 183.350341 6.671901 183.350341 7.270859 C 183.350341 7.864609 183.293049 8.338568 183.178466 8.697943 C 183.063883 9.052109 182.871174 9.296901 182.595133 9.437526 C 182.183674 9.640651 181.600341 9.739609 180.839924 9.739609 L 174.267007 9.739609 L 174.267007 27.046902 C 174.267007 27.572944 174.251382 27.958361 174.220132 28.213569 C 174.183674 28.463569 174.079507 28.755236 173.907632 29.093777 C 173.740965 29.421902 173.438882 29.656277 173.001382 29.796902 C 172.563882 29.932319 171.990965 30.000027 171.277424 30.000027 C 170.56909 30.000027 170.001382 29.932319 169.574298 29.796902 C 169.152423 29.656277 168.860757 29.421902 168.683673 29.093777 C 168.511798 28.755236 168.407632 28.458361 168.376382 28.192736 C 168.339923 27.932319 168.324298 27.536485 168.324298 27.010444 L 168.324298 9.739609 L 161.714923 9.739609 C 160.980548 9.739609 160.44409 9.656276 160.095131 9.489609 C 159.756589 9.312526 159.522214 9.046901 159.407631 8.682318 C 159.293048 8.312526 159.240964 7.833359 159.240964 7.239609 C 159.240964 6.640651 159.293048 6.161484 159.407631 5.812526 C 159.522214 5.453151 159.725339 5.203151 160.001381 5.062526 C 160.41284 4.864609 160.996173 4.760442 161.751381 4.760442 Z M 191.626383 7.817734 C 191.626383 7.291692 191.647217 6.895859 191.678467 6.635442 C 191.714925 6.369817 191.8243 6.067734 192.006592 5.718776 C 192.3243 5.104192 193.220133 4.796901 194.683675 4.796901 C 196.29305 4.796901 197.240967 5.218776 197.537842 6.062526 C 197.657634 6.453151 197.714925 7.052109 197.714925 7.848984 L 197.714925 26.979194 C 197.714925 27.526069 197.6993 27.927111 197.66805 28.177111 C 197.631592 28.432319 197.522217 28.729194 197.339925 29.067736 C 197.0118 29.687527 196.115967 30.000027 194.652425 30.000027 C 193.048258 30.000027 192.110758 29.562527 191.829508 28.692736 C 191.694092 28.328152 191.626383 27.73961 191.626383 26.937527 Z M 191.626383 7.817734 " stroke="#219fa9" stroke-width="0.472878" stroke-opacity="1" stroke-miterlimit="4"/><g fill="#219fa9" fill-opacity="1"><g transform="translate(165.623972, 226.62498)"><g><path d="M 1.03125 -16.640625 C 1.03125 -17.035156 1.039062 -17.332031 1.0625 -17.53125 C 1.09375 -17.726562 1.175781 -17.957031 1.3125 -18.21875 C 1.550781 -18.675781 2.222656 -18.90625 3.328125 -18.90625 C 4.535156 -18.90625 5.25 -18.585938 5.46875 -17.953125 C 5.550781 -17.660156 5.59375 -17.210938 5.59375 -16.609375 L 5.59375 -2.265625 C 5.59375 -1.859375 5.578125 -1.554688 5.546875 -1.359375 C 5.523438 -1.171875 5.445312 -0.953125 5.3125 -0.703125 C 5.070312 -0.234375 4.398438 0 3.296875 0 C 2.097656 0 1.394531 -0.328125 1.1875 -0.984375 C 1.082031 -1.253906 1.03125 -1.691406 1.03125 -2.296875 Z M 1.03125 -16.640625 "/></g></g></g><g fill="#219fa9" fill-opacity="1"><g transform="translate(177.047304, 226.62498)"><g><path d="M 21.125 -18.1875 C 21.257812 -17.925781 21.335938 -17.691406 21.359375 -17.484375 C 21.390625 -17.285156 21.40625 -16.988281 21.40625 -16.59375 L 21.40625 -2.265625 C 21.40625 -1.078125 21.082031 -0.382812 20.4375 -0.1875 C 20.101562 -0.0820312 19.6875 -0.03125 19.1875 -0.03125 C 18.6875 -0.03125 18.289062 -0.0703125 18 -0.15625 C 17.707031 -0.238281 17.484375 -0.335938 17.328125 -0.453125 C 17.179688 -0.578125 17.0625 -0.753906 16.96875 -0.984375 C 16.882812 -1.273438 16.84375 -1.722656 16.84375 -2.328125 L 16.84375 -10.96875 C 16.414062 -10.425781 15.785156 -9.578125 14.953125 -8.421875 C 14.128906 -7.265625 13.601562 -6.535156 13.375 -6.234375 C 13.15625 -5.941406 13.003906 -5.738281 12.921875 -5.625 C 12.835938 -5.519531 12.628906 -5.367188 12.296875 -5.171875 C 11.960938 -4.972656 11.597656 -4.875 11.203125 -4.875 C 10.816406 -4.875 10.460938 -4.960938 10.140625 -5.140625 C 9.828125 -5.328125 9.601562 -5.503906 9.46875 -5.671875 L 9.265625 -5.953125 C 8.921875 -6.390625 8.238281 -7.304688 7.21875 -8.703125 C 6.207031 -10.109375 5.660156 -10.863281 5.578125 -10.96875 L 5.578125 -2.265625 C 5.578125 -1.867188 5.5625 -1.570312 5.53125 -1.375 C 5.507812 -1.175781 5.425781 -0.957031 5.28125 -0.71875 C 5.03125 -0.257812 4.363281 -0.03125 3.28125 -0.03125 C 2.226562 -0.03125 1.570312 -0.257812 1.3125 -0.71875 C 1.175781 -0.957031 1.09375 -1.179688 1.0625 -1.390625 C 1.039062 -1.597656 1.03125 -1.910156 1.03125 -2.328125 L 1.03125 -16.640625 C 1.03125 -17.035156 1.039062 -17.332031 1.0625 -17.53125 C 1.09375 -17.726562 1.175781 -17.957031 1.3125 -18.21875 C 1.570312 -18.664062 2.242188 -18.890625 3.328125 -18.890625 C 3.796875 -18.890625 4.195312 -18.832031 4.53125 -18.71875 C 4.863281 -18.601562 5.082031 -18.488281 5.1875 -18.375 L 5.34375 -18.21875 L 11.203125 -10.53125 C 14.117188 -14.394531 16.066406 -16.945312 17.046875 -18.1875 C 17.335938 -18.65625 18.03125 -18.890625 19.125 -18.890625 C 20.21875 -18.890625 20.882812 -18.65625 21.125 -18.1875 Z M 21.125 -18.1875 "/></g></g></g><g fill="#219fa9" fill-opacity="1"><g transform="translate(204.274513, 226.62498)"><g><path d="M 14.984375 -15.078125 C 15.429688 -14.171875 15.65625 -13.160156 15.65625 -12.046875 C 15.65625 -10.929688 15.429688 -9.921875 14.984375 -9.015625 C 14.535156 -8.109375 13.960938 -7.390625 13.265625 -6.859375 C 11.835938 -5.765625 10.359375 -5.21875 8.828125 -5.21875 L 5.59375 -5.21875 L 5.59375 -2.296875 C 5.59375 -1.898438 5.578125 -1.601562 5.546875 -1.40625 C 5.523438 -1.207031 5.445312 -0.976562 5.3125 -0.71875 C 5.070312 -0.257812 4.398438 -0.03125 3.296875 -0.03125 C 2.097656 -0.03125 1.394531 -0.347656 1.1875 -0.984375 C 1.082031 -1.273438 1.03125 -1.722656 1.03125 -2.328125 L 1.03125 -16.640625 C 1.03125 -17.035156 1.039062 -17.332031 1.0625 -17.53125 C 1.09375 -17.726562 1.175781 -17.957031 1.3125 -18.21875 C 1.550781 -18.675781 2.222656 -18.90625 3.328125 -18.90625 L 8.84375 -18.90625 C 10.363281 -18.90625 11.835938 -18.359375 13.265625 -17.265625 C 13.960938 -16.722656 14.535156 -15.992188 14.984375 -15.078125 Z M 8.84375 -9.78125 C 9.363281 -9.78125 9.875 -9.96875 10.375 -10.34375 C 10.875 -10.71875 11.125 -11.285156 11.125 -12.046875 C 11.125 -12.804688 10.875 -13.378906 10.375 -13.765625 C 9.875 -14.148438 9.359375 -14.34375 8.828125 -14.34375 L 5.59375 -14.34375 L 5.59375 -9.78125 Z M 8.84375 -9.78125 "/></g></g></g><g fill="#219fa9" fill-opacity="1"><g transform="translate(225.365801, 226.62498)"><g><path d="M 1.03125 -16.640625 C 1.03125 -17.035156 1.039062 -17.332031 1.0625 -17.53125 C 1.09375 -17.726562 1.175781 -17.957031 1.3125 -18.21875 C 1.550781 -18.675781 2.222656 -18.90625 3.328125 -18.90625 C 4.535156 -18.90625 5.25 -18.585938 5.46875 -17.953125 C 5.550781 -17.660156 5.59375 -17.210938 5.59375 -16.609375 L 5.59375 -2.265625 C 5.59375 -1.859375 5.578125 -1.554688 5.546875 -1.359375 C 5.523438 -1.171875 5.445312 -0.953125 5.3125 -0.703125 C 5.070312 -0.234375 4.398438 0 3.296875 0 C 2.097656 0 1.394531 -0.328125 1.1875 -0.984375 C 1.082031 -1.253906 1.03125 -1.691406 1.03125 -2.296875 Z M 1.03125 -16.640625 "/></g></g></g><g fill="#219fa9" fill-opacity="1"><g transform="translate(236.789133, 226.62498)"><g><path d="M 11.9375 -17.5625 L 18.90625 -3.171875 C 19.195312 -2.585938 19.34375 -2.148438 19.34375 -1.859375 C 19.34375 -1.234375 18.84375 -0.675781 17.84375 -0.1875 C 17.257812 0.113281 16.800781 0.265625 16.46875 0.265625 C 16.132812 0.265625 15.859375 0.1875 15.640625 0.03125 C 15.429688 -0.125 15.28125 -0.285156 15.1875 -0.453125 C 15.09375 -0.628906 14.957031 -0.890625 14.78125 -1.234375 L 13.4375 -4.03125 L 6.296875 -4.03125 L 4.953125 -1.234375 C 4.773438 -0.890625 4.640625 -0.640625 4.546875 -0.484375 C 4.453125 -0.335938 4.296875 -0.179688 4.078125 -0.015625 C 3.867188 0.148438 3.597656 0.234375 3.265625 0.234375 C 2.929688 0.234375 2.472656 0.0859375 1.890625 -0.203125 C 0.890625 -0.679688 0.390625 -1.234375 0.390625 -1.859375 C 0.390625 -2.148438 0.535156 -2.585938 0.828125 -3.171875 L 7.796875 -17.59375 C 7.984375 -17.988281 8.269531 -18.304688 8.65625 -18.546875 C 9.039062 -18.785156 9.445312 -18.90625 9.875 -18.90625 C 10.800781 -18.90625 11.488281 -18.457031 11.9375 -17.5625 Z M 9.859375 -11.375 L 8.15625 -7.84375 L 11.578125 -7.84375 Z M 9.859375 -11.375 "/></g></g></g><g fill="#219fa9" fill-opacity="1"><g transform="translate(261.309322, 226.62498)"><g><path d="M 13.234375 -18.125 C 13.398438 -18.425781 13.644531 -18.628906 13.96875 -18.734375 C 14.300781 -18.835938 14.710938 -18.890625 15.203125 -18.890625 C 15.691406 -18.890625 16.085938 -18.84375 16.390625 -18.75 C 16.691406 -18.664062 16.914062 -18.5625 17.0625 -18.4375 C 17.207031 -18.320312 17.316406 -18.144531 17.390625 -17.90625 C 17.492188 -17.625 17.546875 -17.1875 17.546875 -16.59375 L 17.546875 -2.265625 C 17.546875 -1.859375 17.53125 -1.554688 17.5 -1.359375 C 17.476562 -1.171875 17.398438 -0.953125 17.265625 -0.703125 C 17.015625 -0.234375 16.34375 0 15.25 0 C 14.570312 0 14.101562 -0.0507812 13.84375 -0.15625 C 13.59375 -0.257812 13.378906 -0.421875 13.203125 -0.640625 C 9.335938 -5.804688 6.796875 -9.175781 5.578125 -10.75 L 5.578125 -2.265625 C 5.578125 -1.859375 5.5625 -1.554688 5.53125 -1.359375 C 5.507812 -1.171875 5.425781 -0.953125 5.28125 -0.703125 C 5.039062 -0.234375 4.375 0 3.28125 0 C 2.207031 0 1.550781 -0.234375 1.3125 -0.703125 C 1.175781 -0.953125 1.09375 -1.179688 1.0625 -1.390625 C 1.039062 -1.597656 1.03125 -1.898438 1.03125 -2.296875 L 1.03125 -16.6875 C 1.03125 -17.34375 1.109375 -17.820312 1.265625 -18.125 C 1.429688 -18.425781 1.675781 -18.628906 2 -18.734375 C 2.332031 -18.835938 2.753906 -18.890625 3.265625 -18.890625 C 3.785156 -18.890625 4.195312 -18.835938 4.5 -18.734375 C 4.800781 -18.640625 5.015625 -18.535156 5.140625 -18.421875 C 5.203125 -18.367188 5.398438 -18.144531 5.734375 -17.75 C 9.359375 -12.8125 11.78125 -9.550781 13 -7.96875 L 13 -16.6875 C 13 -17.34375 13.078125 -17.820312 13.234375 -18.125 Z M 13.234375 -18.125 "/></g></g></g><g fill="#219fa9" fill-opacity="1"><g transform="translate(284.669355, 226.62498)"><g><path d="M 2.265625 -18.9375 L 16.609375 -18.9375 C 17.160156 -18.9375 17.566406 -18.867188 17.828125 -18.734375 C 18.085938 -18.609375 18.257812 -18.40625 18.34375 -18.125 C 18.425781 -17.851562 18.46875 -17.492188 18.46875 -17.046875 C 18.46875 -16.597656 18.425781 -16.238281 18.34375 -15.96875 C 18.257812 -15.707031 18.113281 -15.523438 17.90625 -15.421875 C 17.59375 -15.265625 17.15625 -15.1875 16.59375 -15.1875 L 11.65625 -15.1875 L 11.65625 -2.21875 C 11.65625 -1.820312 11.640625 -1.53125 11.609375 -1.34375 C 11.585938 -1.15625 11.515625 -0.9375 11.390625 -0.6875 C 11.265625 -0.4375 11.035156 -0.257812 10.703125 -0.15625 C 10.378906 -0.0507812 9.945312 0 9.40625 0 C 8.875 0 8.445312 -0.0507812 8.125 -0.15625 C 7.8125 -0.257812 7.59375 -0.4375 7.46875 -0.6875 C 7.34375 -0.9375 7.265625 -1.160156 7.234375 -1.359375 C 7.210938 -1.554688 7.203125 -1.851562 7.203125 -2.25 L 7.203125 -15.1875 L 2.25 -15.1875 C 1.695312 -15.1875 1.289062 -15.25 1.03125 -15.375 C 0.769531 -15.507812 0.597656 -15.710938 0.515625 -15.984375 C 0.429688 -16.265625 0.390625 -16.628906 0.390625 -17.078125 C 0.390625 -17.523438 0.429688 -17.878906 0.515625 -18.140625 C 0.597656 -18.410156 0.742188 -18.597656 0.953125 -18.703125 C 1.265625 -18.859375 1.703125 -18.9375 2.265625 -18.9375 Z M 2.265625 -18.9375 "/></g></g></g><g fill="#219fa9" fill-opacity="1"><g transform="translate(308.312985, 226.62498)"><g><path d="M 1.03125 -16.640625 C 1.03125 -17.035156 1.039062 -17.332031 1.0625 -17.53125 C 1.09375 -17.726562 1.175781 -17.957031 1.3125 -18.21875 C 1.550781 -18.675781 2.222656 -18.90625 3.328125 -18.90625 C 4.535156 -18.90625 5.25 -18.585938 5.46875 -17.953125 C 5.550781 -17.660156 5.59375 -17.210938 5.59375 -16.609375 L 5.59375 -2.265625 C 5.59375 -1.859375 5.578125 -1.554688 5.546875 -1.359375 C 5.523438 -1.171875 5.445312 -0.953125 5.3125 -0.703125 C 5.070312 -0.234375 4.398438 0 3.296875 0 C 2.097656 0 1.394531 -0.328125 1.1875 -0.984375 C 1.082031 -1.253906 1.03125 -1.691406 1.03125 -2.296875 Z M 1.03125 -16.640625 "/></g></g></g><g fill="#219fa9" fill-opacity="1"><g transform="translate(319.737247, 226.62498)"><g/></g></g><path stroke-linecap="round" transform="matrix(0.75, 0, 0, 0.75, 49.97769, 238.022694)" fill="none" stroke-linejoin="miter" d="M 6.998497 7.000992 L 376.389146 7.000992 " stroke="#7ad65c" stroke-width="14" stroke-opacity="1" stroke-miterlimit="4"/><path stroke-linecap="round" transform="matrix(0, -0.75, 0.75, 0, 49.975168, 248.520188)" fill="none" stroke-linejoin="miter" d="M 5.500876 5.50186 L 79.334214 5.50186 " stroke="#7ad65c" stroke-width="11" stroke-opacity="1" stroke-miterlimit="4"/></svg>